<svg width="30" height="30" viewBox="0 0 30 30" fill="none" xmlns="http://www.w3.org/2000/svg">
<path d="M15 17.7125C12.3375 17.7125 10.1625 15.55 10.1625 12.875C10.1625 10.2 12.3375 8.05005 15 8.05005C17.6625 8.05005 19.8375 10.2125 19.8375 12.8875C19.8375 15.5625 17.6625 17.7125 15 17.7125ZM15 9.92505C13.375 9.92505 12.0375 11.25 12.0375 12.8875C12.0375 14.525 13.3625 15.85 15 15.85C16.6375 15.85 17.9625 14.525 17.9625 12.8875C17.9625 11.25 16.625 9.92505 15 9.92505Z" fill="white"/>
<path d="M15 28.45C13.15 28.45 11.2875 27.75 9.83748 26.3625C6.14998 22.8125 2.07498 17.15 3.61248 10.4125C4.99998 4.3 10.3375 1.5625 15 1.5625C15 1.5625 15 1.5625 15.0125 1.5625C19.675 1.5625 25.0125 4.3 26.4 10.425C27.925 17.1625 23.85 22.8125 20.1625 26.3625C18.7125 27.75 16.85 28.45 15 28.45ZM15 3.4375C11.3625 3.4375 6.68748 5.375 5.44998 10.825C4.09998 16.7125 7.79998 21.7875 11.15 25C13.3125 27.0875 16.7 27.0875 18.8625 25C22.2 21.7875 25.9 16.7125 24.575 10.825C23.325 5.375 18.6375 3.4375 15 3.4375Z" fill="white"/>
</svg>
