<svg width="50" height="50" viewBox="0 0 50 50" fill="none" xmlns="http://www.w3.org/2000/svg">
<rect width="50" height="50" rx="25" fill="#111111"/>
<g clip-path="url(#clip0_12_1673)">
<path d="M18.1818 37.3769V24.5647L15.1862 20.9296L12.5 18.9124V35.1159C12.5 36.3669 13.2642 37.3769 14.2046 37.3769H18.1818Z" fill="#4285F4"/>
<path d="M31.8181 37.377H35.7954C36.7386 37.377 37.5 36.3632 37.5 35.116V18.9126L34.4574 21.2231L31.8181 24.5648V37.377Z" fill="#34A853"/>
<path d="M18.1818 24.5647L17.7742 19.5587L18.1818 14.7673L25 21.5502L31.8181 14.7673L32.2741 19.3L31.8181 24.5647L25 31.3476L18.1818 24.5647Z" fill="#EA4335"/>
<path d="M31.8181 14.7673V24.5647L37.5 18.9124V15.8978C37.5 13.1018 35.0937 11.5079 33.4091 13.1847L31.8181 14.7673Z" fill="#FBBC04"/>
<path d="M12.5 18.9125L15.1132 21.5122L18.1818 24.5648V14.7674L16.5908 13.1847C14.9033 11.5078 12.5 13.1018 12.5 15.8977V18.9125Z" fill="#C5221F"/>
</g>
<defs>
<clipPath id="clip0_12_1673">
<rect width="25" height="25" fill="white" transform="translate(12.5 12.5)"/>
</clipPath>
</defs>
</svg>
